<?xml version="1.0" standalone="no"?><svg xmlns:xlink="http://www.w3.org/1999/xlink" xmlns="http://www.w3.org/2000/svg" viewBox="0 0 2000 545.4576744186046" preserveAspectRatio="xMaxYMax slice"><g transform="scale(0.9302325581395349)"><rect x="0" y="0" width="2150" height="684.0909090909091" fill="#ffffff00"/><rect x="32.38961038961039" y="130.11688311688312" width="32.948051948051955" height="32.948051948051955" fill="#ffffff00"/><path d="M 32.39 163.06 A 16.47 16.47 0 0 1  48.86 146.59 L 32.39 163.06 A 16.47 16.47 0 0 0 48.86 146.59" fill="#d0f0f0"/><path d="M 521.03 163.07 A 32.95 32.95 0 0 1  553.98 130.12 L 521.03 163.07 A 32.95 32.95 0 0 0 553.98 130.12" fill="#9db4c8"/><path d="M 814.21 130.12 A 32.95 32.95 0 0 1  847.1600000000001 163.07 L 814.21 130.12 A 32.95 32.95 0 0 0 847.1600000000001 163.07" fill="#eb868f"/><path d="M 1889.21 130.12 A 32.95 32.95 0 0 1  1922.16 163.07 L 1889.21 130.12 A 32.95 32.95 0 0 0 1922.16 163.07" fill="#e8717c"/><rect x="25.688311688311696" y="221.14285714285717" width="46.35064935064934" height="46.35064935064934" fill="#ffffff00"/><rect x="416.5974025974026" y="221.14285714285717" width="46.35064935064934" height="46.35064935064934" fill="#ffffff00"/><path d="M 416.6 221.14 A 23.18 23.18 0 0 1  439.78000000000003 244.32 L 416.6 221.14 A 23.18 23.18 0 0 0 439.78000000000003 244.32" fill="#fff7f4"/><rect x="514.3246753246754" y="221.14285714285717" width="46.35064935064934" height="46.35064935064934" fill="#ffffff00"/><path d="M 537.5 244.32 A 23.18 23.18 0 0 1  560.68 221.14 L 537.5 244.32 A 23.18 23.18 0 0 0 560.68 221.14" fill="#fff8f6"/><path d="M 537.5 267.5 A 23.18 23.18 0 0 1  560.68 244.32 L 537.5 267.5 A 23.18 23.18 0 0 0 560.68 244.32" fill="#2e5f8a"/><path d="M 612.05 267.49 A 46.35 46.35 0 0 1  658.4 221.14 L 612.05 267.49 A 46.35 46.35 0 0 0 658.4 221.14" fill="#ffe5db"/><rect x="709.7792207792209" y="221.14285714285717" width="46.35064935064934" height="46.35064935064934" fill="#ffffff00"/><path d="M 732.95 244.32 A 23.18 23.18 0 0 1  756.13 221.14 L 732.95 244.32 A 23.18 23.18 0 0 0 756.13 221.14" fill="#99dede"/><rect x="1198.4155844155844" y="221.14285714285717" width="46.35064935064934" height="46.35064935064934" fill="#ffffff00"/><path d="M 1221.59 221.14 A 23.18 23.18 0 0 1  1244.77 244.32 L 1221.59 221.14 A 23.18 23.18 0 0 0 1244.77 244.32" fill="#f8d3d6"/><path d="M 1198.42 267.5 A 23.18 23.18 0 0 1  1221.6000000000001 244.32 L 1198.42 267.5 A 23.18 23.18 0 0 0 1221.6000000000001 244.32" fill="#ffdbce"/><rect x="1491.5974025974026" y="221.14285714285717" width="46.35064935064934" height="46.35064935064934" fill="#ffffff00"/><path d="M 1491.6 267.5 A 23.18 23.18 0 0 1  1514.78 244.32 L 1491.6 267.5 A 23.18 23.18 0 0 0 1514.78 244.32" fill="#ace4e4"/><path d="M 116.71 312.17 A 59.75 59.75 0 0 1  176.45999999999998 371.92 L 116.71 312.17 A 59.75 59.75 0 0 0 176.45999999999998 371.92" fill="#e97580"/><rect x="214.44155844155847" y="312.16883116883116" width="59.75324675324675" height="59.75324675324675" fill="#ffffff00"/><rect x="409.8961038961039" y="312.16883116883116" width="59.75324675324675" height="59.75324675324675" fill="#ffffff00"/><path d="M 409.9 342.05 A 29.88 29.88 0 0 1  439.78 312.17 L 409.9 342.05 A 29.88 29.88 0 0 0 439.78 312.17" fill="#bceaea"/><rect x="507.62337662337666" y="312.16883116883116" width="59.75324675324675" height="59.75324675324675" fill="#ffffff00"/><path d="M 537.5 312.17 A 29.88 29.88 0 0 1  567.38 342.05 L 537.5 312.17 A 29.88 29.88 0 0 0 567.38 342.05" fill="#ec8690"/><path d="M 537.5 342.05 A 29.88 29.88 0 0 1  567.38 371.93 L 537.5 342.05 A 29.88 29.88 0 0 0 567.38 371.93" fill="#f5c4c9"/><rect x="1191.7142857142858" y="312.16883116883116" width="59.75324675324675" height="59.75324675324675" fill="#ffffff00"/><path d="M 1191.71 312.17 A 29.88 29.88 0 0 1  1221.5900000000001 342.05 L 1191.71 312.17 A 29.88 29.88 0 0 0 1221.5900000000001 342.05" fill="#b0c3d3"/><path d="M 1221.59 371.93 A 29.88 29.88 0 0 1  1251.47 342.05 L 1221.59 371.93 A 29.88 29.88 0 0 0 1251.47 342.05" fill="#ccefef"/><path d="M 1387.17 312.17 A 59.75 59.75 0 0 1  1446.92 371.92 L 1387.17 312.17 A 59.75 59.75 0 0 0 1446.92 371.92" fill="#678baa"/><rect x="1484.896103896104" y="312.16883116883116" width="59.75324675324675" height="59.75324675324675" fill="#ffffff00"/><path d="M 1484.9 342.05 A 29.88 29.88 0 0 1  1514.7800000000002 312.17 L 1484.9 342.05 A 29.88 29.88 0 0 0 1514.7800000000002 312.17" fill="#f1a7ae"/><path d="M 1514.77 312.17 A 29.88 29.88 0 0 1  1544.65 342.05 L 1514.77 312.17 A 29.88 29.88 0 0 0 1544.65 342.05" fill="#d6f2f2"/><path d="M 1484.9 342.05 A 29.88 29.88 0 0 1  1514.7800000000002 371.93 L 1484.9 342.05 A 29.88 29.88 0 0 0 1514.7800000000002 371.93" fill="#f4babf"/><path d="M 1514.77 371.93 A 29.88 29.88 0 0 1  1544.65 342.05 L 1514.77 371.93 A 29.88 29.88 0 0 0 1544.65 342.05" fill="#ffe8e0"/><rect x="1778.0779220779223" y="312.16883116883116" width="59.75324675324675" height="59.75324675324675" fill="#ffffff00"/><path d="M 1807.95 342.05 A 29.88 29.88 0 0 1  1837.8300000000002 371.93 L 1807.95 342.05 A 29.88 29.88 0 0 0 1837.8300000000002 371.93" fill="#6f91af"/><rect x="1875.805194805195" y="312.16883116883116" width="59.75324675324675" height="59.75324675324675" fill="#ffffff00"/><path d="M 1905.68 342.05 A 29.88 29.88 0 0 1  1935.5600000000002 312.17 L 1905.68 342.05 A 29.88 29.88 0 0 0 1935.5600000000002 312.17" fill="#ffefe9"/><path d="M 1875.81 342.05 A 29.88 29.88 0 0 1  1905.69 371.93 L 1875.81 342.05 A 29.88 29.88 0 0 0 1905.69 371.93" fill="#fff3ee"/><path d="M 2071.26 371.92 A 59.75 59.75 0 0 1  2131.01 312.17 L 2071.26 371.92 A 59.75 59.75 0 0 0 2131.01 312.17" fill="#d7f2f2"/><rect x="12.28571428571429" y="403.1948051948052" width="73.15584415584415" height="73.15584415584415" fill="#ffffff00"/><path d="M 48.86 439.77 A 36.58 36.58 0 0 1  85.44 403.19 L 48.86 439.77 A 36.58 36.58 0 0 0 85.44 403.19" fill="#4e789c"/><path d="M 48.86 439.77 A 36.58 36.58 0 0 1  85.44 476.34999999999997 L 48.86 439.77 A 36.58 36.58 0 0 0 85.44 476.34999999999997" fill="#f5c3c8"/><rect x="207.74025974025975" y="403.1948051948052" width="73.15584415584415" height="73.15584415584415" fill="#ffffff00"/><path d="M 244.32 403.19 A 36.58 36.58 0 0 1  280.9 439.77 L 244.32 403.19 A 36.58 36.58 0 0 0 280.9 439.77" fill="#ffdacd"/><path d="M 207.74 439.77 A 36.58 36.58 0 0 1  244.32 476.34999999999997 L 207.74 439.77 A 36.58 36.58 0 0 0 244.32 476.34999999999997" fill="#edf9f9"/><path d="M 244.32 476.34999999999997 A 36.58 36.58 0 0 1  280.9 439.77 L 244.32 476.34999999999997 A 36.58 36.58 0 0 0 280.9 439.77" fill="#fae1e3"/><path d="M 305.47 476.35 A 73.16 73.16 0 0 1  378.63 403.19 L 305.47 476.35 A 73.16 73.16 0 0 0 378.63 403.19" fill="#9ee0e0"/><rect x="403.1948051948052" y="403.1948051948052" width="73.15584415584415" height="73.15584415584415" fill="#ffffff00"/><path d="M 403.19 439.77 A 36.58 36.58 0 0 1  439.77 403.19 L 403.19 439.77 A 36.58 36.58 0 0 0 439.77 403.19" fill="#f1a7ae"/><path d="M 403.19 439.77 A 36.58 36.58 0 0 1  439.77 476.34999999999997 L 403.19 439.77 A 36.58 36.58 0 0 0 439.77 476.34999999999997" fill="#a8bcce"/><path d="M 500.92 403.19 A 73.16 73.16 0 0 1  574.08 476.35 L 500.92 403.19 A 73.16 73.16 0 0 0 574.08 476.35" fill="#9fe0e0"/><path d="M 598.65 476.35 A 73.16 73.16 0 0 1  671.81 403.19 L 598.65 476.35 A 73.16 73.16 0 0 0 671.81 403.19" fill="#e55f6c"/><path d="M 696.38 403.19 A 73.16 73.16 0 0 1  769.54 476.35 L 696.38 403.19 A 73.16 73.16 0 0 0 769.54 476.35" fill="#ffe6dd"/><rect x="794.1038961038962" y="403.1948051948052" width="73.15584415584415" height="73.15584415584415" fill="#ffffff00"/><path d="M 794.1 439.77 A 36.58 36.58 0 0 1  830.6800000000001 403.19 L 794.1 439.77 A 36.58 36.58 0 0 0 830.6800000000001 403.19" fill="#b2e6e6"/><path d="M 830.68 439.77 A 36.58 36.58 0 0 1  867.26 403.19 L 830.68 439.77 A 36.58 36.58 0 0 0 867.26 403.19" fill="#fffbf9"/><path d="M 830.68 476.34999999999997 A 36.58 36.58 0 0 1  867.26 439.77 L 830.68 476.34999999999997 A 36.58 36.58 0 0 0 867.26 439.77" fill="#ee969f"/><path d="M 989.56 476.35 A 73.16 73.16 0 0 1  1062.72 403.19 L 989.56 476.35 A 73.16 73.16 0 0 0 1062.72 403.19" fill="#d7e1e9"/><path d="M 1087.29 476.35 A 73.16 73.16 0 0 1  1160.45 403.19 L 1087.29 476.35 A 73.16 73.16 0 0 0 1160.45 403.19" fill="#8ba7be"/><path d="M 1380.47 403.19 A 73.16 73.16 0 0 1  1453.63 476.35 L 1380.47 403.19 A 73.16 73.16 0 0 0 1453.63 476.35" fill="#35658e"/><path d="M 1478.19 403.19 A 73.16 73.16 0 0 1  1551.3500000000001 476.35 L 1478.19 403.19 A 73.16 73.16 0 0 0 1551.3500000000001 476.35" fill="#ffd9cb"/><rect x="1673.6493506493507" y="403.1948051948052" width="73.15584415584415" height="73.15584415584415" fill="#ffffff00"/><path d="M 1673.65 439.77 A 36.58 36.58 0 0 1  1710.23 403.19 L 1673.65 439.77 A 36.58 36.58 0 0 0 1710.23 403.19" fill="#aee5e5"/><rect x="1966.831168831169" y="403.1948051948052" width="73.15584415584415" height="73.15584415584415" fill="#ffffff00"/><path d="M 1966.83 439.77 A 36.58 36.58 0 0 1  2003.4099999999999 403.19 L 1966.83 439.77 A 36.58 36.58 0 0 0 2003.4099999999999 403.19" fill="#ffdfd4"/><path d="M 2003.41 439.77 A 36.58 36.58 0 0 1  2039.99 403.19 L 2003.41 439.77 A 36.58 36.58 0 0 0 2039.99 403.19" fill="#8da8bf"/><path d="M 1966.83 476.34999999999997 A 36.58 36.58 0 0 1  2003.4099999999999 439.77 L 1966.83 476.34999999999997 A 36.58 36.58 0 0 0 2003.4099999999999 439.77" fill="#9ab2c6"/><path d="M 2003.41 439.77 A 36.58 36.58 0 0 1  2039.99 476.34999999999997 L 2003.41 439.77 A 36.58 36.58 0 0 0 2039.99 476.34999999999997" fill="#5f85a5"/><rect x="5.584415584415587" y="494.22077922077926" width="86.55844155844156" height="86.55844155844156" fill="#ffffff00"/><path d="M 5.58 537.5 A 43.28 43.28 0 0 1  48.86 494.22 L 5.58 537.5 A 43.28 43.28 0 0 0 48.86 494.22" fill="#ffede7"/><path d="M 48.86 494.22 A 43.28 43.28 0 0 1  92.14 537.5 L 48.86 494.22 A 43.28 43.28 0 0 0 92.14 537.5" fill="#fffcfb"/><path d="M 5.58 537.5 A 43.28 43.28 0 0 1  48.86 580.78 L 5.58 537.5 A 43.28 43.28 0 0 0 48.86 580.78" fill="#fff6f3"/><rect x="201.03896103896105" y="494.22077922077926" width="86.55844155844156" height="86.55844155844156" fill="#ffffff00"/><path d="M 201.04 494.22 A 43.28 43.28 0 0 1  244.32 537.5 L 201.04 494.22 A 43.28 43.28 0 0 0 244.32 537.5" fill="#e97681"/><path d="M 244.32 494.22 A 43.28 43.28 0 0 1  287.6 537.5 L 244.32 494.22 A 43.28 43.28 0 0 0 287.6 537.5" fill="#ee959d"/><path d="M 201.04 537.5 A 43.28 43.28 0 0 1  244.32 580.78 L 201.04 537.5 A 43.28 43.28 0 0 0 244.32 580.78" fill="#f1abb1"/><path d="M 298.77 494.22 A 86.56 86.56 0 0 1  385.33 580.78 L 298.77 494.22 A 86.56 86.56 0 0 0 385.33 580.78" fill="#eff3f6"/><path d="M 396.49 494.22 A 86.56 86.56 0 0 1  483.05 580.78 L 396.49 494.22 A 86.56 86.56 0 0 0 483.05 580.78" fill="#ffd8c9"/><path d="M 494.22 580.78 A 86.56 86.56 0 0 1  580.78 494.22 L 494.22 580.78 A 86.56 86.56 0 0 0 580.78 494.22" fill="#3b6a91"/><rect x="591.948051948052" y="494.22077922077926" width="86.55844155844156" height="86.55844155844156" fill="#ffffff00"/><path d="M 591.95 494.22 A 43.28 43.28 0 0 1  635.23 537.5 L 591.95 494.22 A 43.28 43.28 0 0 0 635.23 537.5" fill="#fff4f0"/><path d="M 635.23 494.22 A 43.28 43.28 0 0 1  678.51 537.5 L 635.23 494.22 A 43.28 43.28 0 0 0 678.51 537.5" fill="#f0a5ac"/><path d="M 591.95 580.78 A 43.28 43.28 0 0 1  635.23 537.5 L 591.95 580.78 A 43.28 43.28 0 0 0 635.23 537.5" fill="#a5e2e2"/><path d="M 689.68 494.22 A 86.56 86.56 0 0 1  776.24 580.78 L 689.68 494.22 A 86.56 86.56 0 0 0 776.24 580.78" fill="#447096"/><path d="M 787.4 580.78 A 86.56 86.56 0 0 1  873.96 494.22 L 787.4 580.78 A 86.56 86.56 0 0 0 873.96 494.22" fill="#b0c3d3"/><rect x="885.1298701298703" y="494.22077922077926" width="86.55844155844156" height="86.55844155844156" fill="#ffffff00"/><path d="M 885.13 537.5 A 43.28 43.28 0 0 1  928.41 494.22 L 885.13 537.5 A 43.28 43.28 0 0 0 928.41 494.22" fill="#ec8a93"/><path d="M 928.41 537.5 A 43.28 43.28 0 0 1  971.6899999999999 494.22 L 928.41 537.5 A 43.28 43.28 0 0 0 971.6899999999999 494.22" fill="#fff5f1"/><path d="M 885.13 537.5 A 43.28 43.28 0 0 1  928.41 580.78 L 885.13 537.5 A 43.28 43.28 0 0 0 928.41 580.78" fill="#fcfefe"/><path d="M 928.41 580.78 A 43.28 43.28 0 0 1  971.6899999999999 537.5 L 928.41 580.78 A 43.28 43.28 0 0 0 971.6899999999999 537.5" fill="#b2e6e6"/><rect x="982.857142857143" y="494.22077922077926" width="86.55844155844156" height="86.55844155844156" fill="#ffffff00"/><path d="M 982.86 494.22 A 43.28 43.28 0 0 1  1026.14 537.5 L 982.86 494.22 A 43.28 43.28 0 0 0 1026.14 537.5" fill="#8aa6be"/><path d="M 1026.14 494.22 A 43.28 43.28 0 0 1  1069.42 537.5 L 1026.14 494.22 A 43.28 43.28 0 0 0 1069.42 537.5" fill="#b5c6d5"/><path d="M 982.86 580.78 A 43.28 43.28 0 0 1  1026.14 537.5 L 982.86 580.78 A 43.28 43.28 0 0 0 1026.14 537.5" fill="#e1e8ee"/><path d="M 1026.14 537.5 A 43.28 43.28 0 0 1  1069.42 580.78 L 1026.14 537.5 A 43.28 43.28 0 0 0 1069.42 580.78" fill="#f5c4c8"/><rect x="1080.5844155844156" y="494.22077922077926" width="86.55844155844156" height="86.55844155844156" fill="#ffffff00"/><path d="M 1080.58 494.22 A 43.28 43.28 0 0 1  1123.86 537.5 L 1080.58 494.22 A 43.28 43.28 0 0 0 1123.86 537.5" fill="#90aac1"/><path d="M 1123.86 494.22 A 43.28 43.28 0 0 1  1167.1399999999999 537.5 L 1123.86 494.22 A 43.28 43.28 0 0 0 1167.1399999999999 537.5" fill="#7b9ab5"/><path d="M 1080.58 580.78 A 43.28 43.28 0 0 1  1123.86 537.5 L 1080.58 580.78 A 43.28 43.28 0 0 0 1123.86 537.5" fill="#aae4e4"/><path d="M 1123.86 580.78 A 43.28 43.28 0 0 1  1167.1399999999999 537.5 L 1123.86 580.78 A 43.28 43.28 0 0 0 1167.1399999999999 537.5" fill="#dae3eb"/><path d="M 1276.04 580.78 A 86.56 86.56 0 0 1  1362.6 494.22 L 1276.04 580.78 A 86.56 86.56 0 0 0 1362.6 494.22" fill="#f9dcdf"/><path d="M 1373.77 494.22 A 86.56 86.56 0 0 1  1460.33 580.78 L 1373.77 494.22 A 86.56 86.56 0 0 0 1460.33 580.78" fill="#f2aeb4"/><rect x="1569.2207792207794" y="494.22077922077926" width="86.55844155844156" height="86.55844155844156" fill="#ffffff00"/><path d="M 1569.22 537.5 A 43.28 43.28 0 0 1  1612.5 494.22 L 1569.22 537.5 A 43.28 43.28 0 0 0 1612.5 494.22" fill="#abe4e4"/><path d="M 1612.5 537.5 A 43.28 43.28 0 0 1  1655.78 494.22 L 1612.5 537.5 A 43.28 43.28 0 0 0 1655.78 494.22" fill="#e97580"/><path d="M 1569.22 580.78 A 43.28 43.28 0 0 1  1612.5 537.5 L 1569.22 580.78 A 43.28 43.28 0 0 0 1612.5 537.5" fill="#cfdbe4"/><path d="M 1612.5 580.78 A 43.28 43.28 0 0 1  1655.78 537.5 L 1612.5 580.78 A 43.28 43.28 0 0 0 1655.78 537.5" fill="#ee99a1"/><rect x="1666.9480519480521" y="494.22077922077926" width="86.55844155844156" height="86.55844155844156" fill="#ffffff00"/><path d="M 1666.95 494.22 A 43.28 43.28 0 0 1  1710.23 537.5 L 1666.95 494.22 A 43.28 43.28 0 0 0 1710.23 537.5" fill="#ffffff00"/><path d="M 1710.23 494.22 A 43.28 43.28 0 0 1  1753.51 537.5 L 1710.23 494.22 A 43.28 43.28 0 0 0 1753.51 537.5" fill="#e76c78"/><path d="M 1666.95 580.78 A 43.28 43.28 0 0 1  1710.23 537.5 L 1666.95 580.78 A 43.28 43.28 0 0 0 1710.23 537.5" fill="#eb858f"/><path d="M 1710.23 580.78 A 43.28 43.28 0 0 1  1753.51 537.5 L 1710.23 580.78 A 43.28 43.28 0 0 0 1753.51 537.5" fill="#ffece5"/><path d="M 1764.68 494.22 A 86.56 86.56 0 0 1  1851.24 580.78 L 1764.68 494.22 A 86.56 86.56 0 0 0 1851.24 580.78" fill="#e6626e"/><rect x="1862.4025974025976" y="494.22077922077926" width="86.55844155844156" height="86.55844155844156" fill="#ffffff00"/><path d="M 1862.4 494.22 A 43.28 43.28 0 0 1  1905.68 537.5 L 1862.4 494.22 A 43.28 43.28 0 0 0 1905.68 537.5" fill="#ee939c"/><path d="M 1905.68 580.78 A 43.28 43.28 0 0 1  1948.96 537.5 L 1905.68 580.78 A 43.28 43.28 0 0 0 1948.96 537.5" fill="#e7f7f7"/><path d="M 1960.13 580.78 A 86.56 86.56 0 0 1  2046.69 494.22 L 1960.13 580.78 A 86.56 86.56 0 0 0 2046.69 494.22" fill="#fdf0f1"/><rect x="2057.857142857143" y="494.22077922077926" width="86.55844155844156" height="86.55844155844156" fill="#ffffff00"/><path d="M 2101.14 537.5 A 43.28 43.28 0 0 1  2144.42 494.22 L 2101.14 537.5 A 43.28 43.28 0 0 0 2144.42 494.22" fill="#cedae4"/><path d="M 2057.86 537.5 A 43.28 43.28 0 0 1  2101.1400000000003 580.78 L 2057.86 537.5 A 43.28 43.28 0 0 0 2101.1400000000003 580.78" fill="#ace4e4"/><path d="M 2101.14 537.5 A 43.28 43.28 0 0 1  2144.42 580.78 L 2101.14 537.5 A 43.28 43.28 0 0 0 2144.42 580.78" fill="#f3b6bc"/><path d="M 0 586.36 A 97.73 97.73 0 0 1  97.73 684.09 L 0 586.36 A 97.73 97.73 0 0 0 97.73 684.09" fill="#f1fafa"/><path d="M 97.73 684.09 A 97.73 97.73 0 0 1  195.46 586.36 L 97.73 684.09 A 97.73 97.73 0 0 0 195.46 586.36" fill="#b9e9e9"/><path d="M 195.45 586.36 A 97.73 97.73 0 0 1  293.18 684.09 L 195.45 586.36 A 97.73 97.73 0 0 0 293.18 684.09" fill="#fff4f0"/><rect x="293.1818181818182" y="586.3636363636364" width="97.72727272727273" height="97.72727272727273" fill="#ffffff00"/><path d="M 293.18 635.22 A 48.86 48.86 0 0 1  342.04 586.36 L 293.18 635.22 A 48.86 48.86 0 0 0 342.04 586.36" fill="#e86e79"/><path d="M 342.05 586.36 A 48.86 48.86 0 0 1  390.91 635.22 L 342.05 586.36 A 48.86 48.86 0 0 0 390.91 635.22" fill="#e0f5f5"/><path d="M 293.18 684.09 A 48.86 48.86 0 0 1  342.04 635.23 L 293.18 684.09 A 48.86 48.86 0 0 0 342.04 635.23" fill="#9cdfdf"/><path d="M 342.05 635.23 A 48.86 48.86 0 0 1  390.91 684.09 L 342.05 635.23 A 48.86 48.86 0 0 0 390.91 684.09" fill="#b8e8e8"/><rect x="390.90909090909093" y="586.3636363636364" width="97.72727272727273" height="97.72727272727273" fill="#ffffff00"/><path d="M 390.91 635.22 A 48.86 48.86 0 0 1  439.77000000000004 586.36 L 390.91 635.22 A 48.86 48.86 0 0 0 439.77000000000004 586.36" fill="#b7c8d7"/><path d="M 439.77 635.22 A 48.86 48.86 0 0 1  488.63 586.36 L 439.77 635.22 A 48.86 48.86 0 0 0 488.63 586.36" fill="#ffdbce"/><path d="M 390.91 635.23 A 48.86 48.86 0 0 1  439.77000000000004 684.09 L 390.91 635.23 A 48.86 48.86 0 0 0 439.77000000000004 684.09" fill="#ffe8df"/><path d="M 439.77 635.23 A 48.86 48.86 0 0 1  488.63 684.09 L 439.77 635.23 A 48.86 48.86 0 0 0 488.63 684.09" fill="#ed9199"/><rect x="488.6363636363637" y="586.3636363636364" width="97.72727272727273" height="97.72727272727273" fill="#ffffff00"/><path d="M 488.64 635.22 A 48.86 48.86 0 0 1  537.5 586.36 L 488.64 635.22 A 48.86 48.86 0 0 0 537.5 586.36" fill="#e55f6b"/><path d="M 537.5 635.22 A 48.86 48.86 0 0 1  586.36 586.36 L 537.5 635.22 A 48.86 48.86 0 0 0 586.36 586.36" fill="#e97681"/><path d="M 488.64 635.23 A 48.86 48.86 0 0 1  537.5 684.09 L 488.64 635.23 A 48.86 48.86 0 0 0 537.5 684.09" fill="#ffe5db"/><path d="M 537.5 635.23 A 48.86 48.86 0 0 1  586.36 684.09 L 537.5 635.23 A 48.86 48.86 0 0 0 586.36 684.09" fill="#ffe1d6"/><rect x="586.3636363636364" y="586.3636363636364" width="97.72727272727273" height="97.72727272727273" fill="#ffffff00"/><path d="M 586.36 586.36 A 48.86 48.86 0 0 1  635.22 635.22 L 586.36 586.36 A 48.86 48.86 0 0 0 635.22 635.22" fill="#4b769a"/><path d="M 635.23 586.36 A 48.86 48.86 0 0 1  684.09 635.22 L 635.23 586.36 A 48.86 48.86 0 0 0 684.09 635.22" fill="#b3c5d5"/><path d="M 586.36 635.23 A 48.86 48.86 0 0 1  635.22 684.09 L 586.36 635.23 A 48.86 48.86 0 0 0 635.22 684.09" fill="#ffded1"/><path d="M 635.23 635.23 A 48.86 48.86 0 0 1  684.09 684.09 L 635.23 635.23 A 48.86 48.86 0 0 0 684.09 684.09" fill="#ffdacc"/><rect x="684.0909090909091" y="586.3636363636364" width="97.72727272727273" height="97.72727272727273" fill="#ffffff00"/><path d="M 684.09 586.36 A 48.86 48.86 0 0 1  732.95 635.22 L 684.09 586.36 A 48.86 48.86 0 0 0 732.95 635.22" fill="#9adfdf"/><path d="M 732.95 635.22 A 48.86 48.86 0 0 1  781.8100000000001 586.36 L 732.95 635.22 A 48.86 48.86 0 0 0 781.8100000000001 586.36" fill="#ffd8ca"/><path d="M 684.09 684.09 A 48.86 48.86 0 0 1  732.95 635.23 L 684.09 684.09 A 48.86 48.86 0 0 0 732.95 635.23" fill="#fffefe"/><path d="M 732.95 635.23 A 48.86 48.86 0 0 1  781.8100000000001 684.09 L 732.95 635.23 A 48.86 48.86 0 0 0 781.8100000000001 684.09" fill="#b1e6e6"/><path d="M 781.82 586.36 A 97.73 97.73 0 0 1  879.5500000000001 684.09 L 781.82 586.36 A 97.73 97.73 0 0 0 879.5500000000001 684.09" fill="#dbf4f4"/><rect x="879.5454545454546" y="586.3636363636364" width="97.72727272727273" height="97.72727272727273" fill="#ffffff00"/><path d="M 879.55 635.22 A 48.86 48.86 0 0 1  928.41 586.36 L 879.55 635.22 A 48.86 48.86 0 0 0 928.41 586.36" fill="#abbfd0"/><path d="M 928.41 586.36 A 48.86 48.86 0 0 1  977.27 635.22 L 928.41 586.36 A 48.86 48.86 0 0 0 977.27 635.22" fill="#ffded2"/><path d="M 879.55 684.09 A 48.86 48.86 0 0 1  928.41 635.23 L 879.55 684.09 A 48.86 48.86 0 0 0 928.41 635.23" fill="#fff9f7"/><path d="M 928.41 684.09 A 48.86 48.86 0 0 1  977.27 635.23 L 928.41 684.09 A 48.86 48.86 0 0 0 977.27 635.23" fill="#c0ebeb"/><path d="M 977.27 684.09 A 97.73 97.73 0 0 1  1075 586.36 L 977.27 684.09 A 97.73 97.73 0 0 0 1075 586.36" fill="#fbe7e9"/><path d="M 1075 586.36 A 97.73 97.73 0 0 1  1172.73 684.09 L 1075 586.36 A 97.73 97.73 0 0 0 1172.73 684.09" fill="#f7cbcf"/><rect x="1172.7272727272727" y="586.3636363636364" width="97.72727272727273" height="97.72727272727273" fill="#ffffff00"/><path d="M 1172.73 635.22 A 48.86 48.86 0 0 1  1221.59 586.36 L 1172.73 635.22 A 48.86 48.86 0 0 0 1221.59 586.36" fill="#fbe6e8"/><path d="M 1221.59 586.36 A 48.86 48.86 0 0 1  1270.4499999999998 635.22 L 1221.59 586.36 A 48.86 48.86 0 0 0 1270.4499999999998 635.22" fill="#fafdfd"/><path d="M 1172.73 635.23 A 48.86 48.86 0 0 1  1221.59 684.09 L 1172.73 635.23 A 48.86 48.86 0 0 0 1221.59 684.09" fill="#fffbf9"/><path d="M 1221.59 684.09 A 48.86 48.86 0 0 1  1270.4499999999998 635.23 L 1221.59 684.09 A 48.86 48.86 0 0 0 1270.4499999999998 635.23" fill="#fff9f7"/><path d="M 1270.45 684.09 A 97.73 97.73 0 0 1  1368.18 586.36 L 1270.45 684.09 A 97.73 97.73 0 0 0 1368.18 586.36" fill="#ffe9e1"/><path d="M 1368.18 586.36 A 97.73 97.73 0 0 1  1465.91 684.09 L 1368.18 586.36 A 97.73 97.73 0 0 0 1465.91 684.09" fill="#ffe4da"/><rect x="1465.909090909091" y="586.3636363636364" width="97.72727272727273" height="97.72727272727273" fill="#ffffff00"/><path d="M 1465.91 586.36 A 48.86 48.86 0 0 1  1514.77 635.22 L 1465.91 586.36 A 48.86 48.86 0 0 0 1514.77 635.22" fill="#ffdbcd"/><path d="M 1514.77 635.22 A 48.86 48.86 0 0 1  1563.6299999999999 586.36 L 1514.77 635.22 A 48.86 48.86 0 0 0 1563.6299999999999 586.36" fill="#f9dbde"/><path d="M 1465.91 684.09 A 48.86 48.86 0 0 1  1514.77 635.23 L 1465.91 684.09 A 48.86 48.86 0 0 0 1514.77 635.23" fill="#fef9f9"/><path d="M 1514.77 684.09 A 48.86 48.86 0 0 1  1563.6299999999999 635.23 L 1514.77 684.09 A 48.86 48.86 0 0 0 1563.6299999999999 635.23" fill="#e0e7ee"/><path d="M 1563.64 684.09 A 97.73 97.73 0 0 1  1661.3700000000001 586.36 L 1563.64 684.09 A 97.73 97.73 0 0 0 1661.3700000000001 586.36" fill="#b7e8e8"/><rect x="1661.3636363636365" y="586.3636363636364" width="97.72727272727273" height="97.72727272727273" fill="#ffffff00"/><path d="M 1661.36 635.22 A 48.86 48.86 0 0 1  1710.2199999999998 586.36 L 1661.36 635.22 A 48.86 48.86 0 0 0 1710.2199999999998 586.36" fill="#adc0d1"/><path d="M 1710.23 635.22 A 48.86 48.86 0 0 1  1759.09 586.36 L 1710.23 635.22 A 48.86 48.86 0 0 0 1759.09 586.36" fill="#f4bec3"/><path d="M 1661.36 635.23 A 48.86 48.86 0 0 1  1710.2199999999998 684.09 L 1661.36 635.23 A 48.86 48.86 0 0 0 1710.2199999999998 684.09" fill="#e5616e"/><path d="M 1710.23 635.23 A 48.86 48.86 0 0 1  1759.09 684.09 L 1710.23 635.23 A 48.86 48.86 0 0 0 1759.09 684.09" fill="#4c779b"/><path d="M 1759.09 586.36 A 97.73 97.73 0 0 1  1856.82 684.09 L 1759.09 586.36 A 97.73 97.73 0 0 0 1856.82 684.09" fill="#f9fbfc"/><rect x="1856.818181818182" y="586.3636363636364" width="97.72727272727273" height="97.72727272727273" fill="#ffffff00"/><path d="M 1856.82 586.36 A 48.86 48.86 0 0 1  1905.6799999999998 635.22 L 1856.82 586.36 A 48.86 48.86 0 0 0 1905.6799999999998 635.22" fill="#c3ecec"/><path d="M 1905.68 586.36 A 48.86 48.86 0 0 1  1954.54 635.22 L 1905.68 586.36 A 48.86 48.86 0 0 0 1954.54 635.22" fill="#ffd7c9"/><path d="M 1856.82 684.09 A 48.86 48.86 0 0 1  1905.6799999999998 635.23 L 1856.82 684.09 A 48.86 48.86 0 0 0 1905.6799999999998 635.23" fill="#e55f6c"/><path d="M 1905.68 635.23 A 48.86 48.86 0 0 1  1954.54 684.09 L 1905.68 635.23 A 48.86 48.86 0 0 0 1954.54 684.09" fill="#c8d5e0"/><rect x="1954.5454545454547" y="586.3636363636364" width="97.72727272727273" height="97.72727272727273" fill="#ffffff00"/><path d="M 1954.55 586.36 A 48.86 48.86 0 0 1  2003.4099999999999 635.22 L 1954.55 586.36 A 48.86 48.86 0 0 0 2003.4099999999999 635.22" fill="#f6c7cb"/><path d="M 2003.41 635.22 A 48.86 48.86 0 0 1  2052.27 586.36 L 2003.41 635.22 A 48.86 48.86 0 0 0 2052.27 586.36" fill="#e8707b"/><path d="M 1954.55 635.23 A 48.86 48.86 0 0 1  2003.4099999999999 684.09 L 1954.55 635.23 A 48.86 48.86 0 0 0 2003.4099999999999 684.09" fill="#fffcfd"/><path d="M 2003.41 684.09 A 48.86 48.86 0 0 1  2052.27 635.23 L 2003.41 684.09 A 48.86 48.86 0 0 0 2052.27 635.23" fill="#cfdae4"/><path d="M 2052.27 586.36 A 97.73 97.73 0 0 1  2150 684.09 L 2052.27 586.36 A 97.73 97.73 0 0 0 2150 684.09" fill="#f0a5ac"/></g></svg>