<?xml version="1.0" standalone="no"?>
<!DOCTYPE svg PUBLIC "-//W3C//DTD SVG 20010904//EN"
 "http://www.w3.org/TR/2001/REC-SVG-20010904/DTD/svg10.dtd">
<svg version="1.0" xmlns="http://www.w3.org/2000/svg"
 width="520.000000pt" height="520.000000pt" viewBox="0 0 520.000000 520.000000"
 preserveAspectRatio="xMidYMid meet">
<metadata>
Created by potrace 1.14, written by Peter Selinger 2001-2017
</metadata>
<g transform="translate(0.000000,520.000000) scale(0.100000,-0.100000)"
fill="#000000" stroke="none">
<path d="M2465 5040 c-46 -10 -105 -35 -190 -84 -33 -19 -78 -44 -100 -56 -22
-12 -47 -28 -55 -35 -8 -6 -51 -31 -95 -55 -44 -23 -87 -48 -96 -56 -8 -8 -19
-14 -23 -14 -5 0 -72 -39 -150 -87 -264 -161 -858 -504 -956 -552 -110 -53
-243 -155 -293 -227 -21 -30 -51 -85 -65 -122 l-27 -67 -3 -805 c-3 -797 -3
-806 18 -852 27 -61 91 -113 150 -123 25 -4 77 -18 115 -30 39 -13 104 -31
145 -41 41 -9 91 -21 111 -26 50 -11 102 -48 113 -81 8 -20 3 -57 -19 -149
-16 -68 -32 -128 -36 -133 -9 -13 -60 -197 -66 -242 -8 -53 14 -99 75 -153 31
-27 61 -50 68 -50 6 0 17 -6 23 -14 7 -8 38 -27 69 -42 31 -15 65 -35 76 -44
10 -8 35 -24 56 -35 87 -45 160 -88 250 -145 52 -33 117 -72 143 -87 27 -16
74 -43 105 -62 55 -33 456 -266 497 -288 56 -31 125 -56 182 -65 83 -13 221
-2 278 22 55 23 115 53 165 82 106 63 123 73 149 94 14 12 48 31 76 43 27 12
59 31 70 41 11 10 45 31 75 45 68 33 162 85 184 104 9 7 42 26 75 41 32 15 62
33 66 40 4 6 32 22 63 36 31 14 66 33 77 43 11 10 75 46 143 80 68 34 155 82
195 106 39 25 76 45 82 45 5 0 28 14 49 30 22 17 44 30 49 30 6 0 25 11 43 25
18 14 44 29 59 35 51 19 171 104 225 159 56 56 91 118 132 234 l23 62 3 934
c2 536 -1 978 -7 1037 -8 89 -15 115 -57 208 -40 89 -57 115 -108 164 -36 34
-103 81 -166 115 -58 32 -133 76 -167 97 -35 21 -73 42 -85 46 -13 4 -39 19
-58 34 -19 15 -69 42 -110 61 -41 18 -82 38 -90 46 -9 7 -40 25 -70 41 -100
52 -170 93 -175 102 -3 5 -26 18 -50 29 -25 11 -60 31 -78 45 -19 14 -38 26
-43 26 -5 0 -58 29 -119 65 -60 35 -131 76 -157 89 -26 14 -49 30 -53 35 -3 6
-32 22 -65 37 -32 14 -67 35 -76 45 -9 11 -23 19 -30 19 -7 0 -25 10 -41 23
-40 33 -209 113 -265 126 -53 12 -173 13 -233 1z m1115 -1418 c92 -16 268 -68
284 -83 6 -5 20 -9 32 -9 12 0 35 -7 50 -15 16 -8 37 -15 46 -15 24 0 48 -39
48 -77 0 -74 -127 -517 -178 -618 -48 -96 -158 -235 -187 -235 -7 0 -19 -7
-26 -16 -12 -15 -64 -52 -109 -79 -10 -6 -24 -16 -32 -23 -8 -6 -41 -26 -74
-43 -89 -46 -146 -78 -176 -97 -25 -15 -28 -15 -46 1 -15 13 -21 36 -25 95 -3
42 -12 97 -20 122 -9 25 -18 56 -21 70 -3 14 -17 41 -32 60 l-26 35 6 -45 c36
-238 24 -440 -39 -645 -24 -78 -130 -261 -207 -357 -111 -139 -252 -247 -443
-339 -92 -45 -135 -58 -135 -43 0 5 32 60 95 164 95 158 168 409 168 580 0 58
-5 123 -11 145 -53 213 -97 317 -185 438 -106 147 -293 302 -417 346 -19 7
-44 17 -55 21 -50 21 -135 44 -195 53 -111 16 -330 20 -386 7 -81 -20 -86 -10
-24 51 106 106 289 201 480 253 83 22 122 26 300 30 202 5 207 5 324 -25 102
-25 125 -28 155 -18 53 16 200 97 246 135 97 78 306 167 424 179 30 3 57 8 60
11 8 8 269 -3 331 -14z m-1857 -1148 c81 -21 123 -43 185 -99 97 -87 147 -234
124 -365 -23 -137 -88 -232 -202 -297 -77 -44 -197 -59 -295 -38 -38 9 -88 19
-110 24 -90 19 -241 63 -262 76 -31 20 -32 46 -6 160 50 226 79 308 135 383
76 102 153 147 278 162 87 11 89 11 153 -6z"/>
<path d="M3310 3311 c-131 -42 -212 -172 -180 -290 15 -56 88 -135 145 -157
65 -24 161 -16 214 19 62 41 94 97 99 172 5 78 -8 120 -54 174 -59 68 -157
104 -224 82z"/>
</g>
</svg>
